<?xml version="1.0" encoding="UTF-8"?>
<svg width="100" height="100" xmlns="http://www.w3.org/2000/svg">
 <g>
  <title>Layer 1</title>
  <rect id="svg_1" height="100" width="100" y="0" x="0" fill="black"/>
  <path fill="green" id="path3380" d="m58.919926,63.486973l12.158825,-13.513027l-8.786728,-9.736973c-4.832695,-5.355335 -10.362392,-11.424473 -12.288219,-13.486973l-3.501495,-3.75l8.452946,0.075714l8.45295,0.075714l11.84108,13.436329l11.841087,13.436329l-10.341087,11.559364c-5.687592,6.357651 -10.958466,12.427231 -11.713051,13.487961c-1.16983,1.64444 -2.617207,1.928589 -9.823551,1.928589l-8.451576,0l12.158821,-13.513027zm-46.011723,-13.486973l0,-6l20,0l20,0l0,6l0,6l-20,0l-20,0l0,-6z" transform="rotate(180, 50, 50)"/>
 </g>
</svg>