<?xml version="1.0" encoding="UTF-8"?>
<svg width="100" height="200" xmlns="http://www.w3.org/2000/svg">
 <g>
  <title>Layer 1</title>
  <rect id="svg_1" height="200" width="100" y="0" x="0" fill="black"/>
  <path d="m34.101059,93.210938c-0.254799,-0.412003 -0.072701,-0.75 0.404602,-0.75c0.477398,0 1.640198,-0.565002 2.584198,-1.254898c1.385601,-1.013199 2.010799,-4.528404 3.245899,-18.25c1.556801,-17.295403 1.978401,-37.876701 0.8368,-40.851601c-1.0886,-2.836903 -2.938198,-1.808002 -5.230099,2.909397l-2.211998,4.552902l2.1353,7.030201c1.6908,5.566399 1.906097,7.533497 1.034199,9.447098c-1.4538,3.190804 -3.405903,3.235703 -2.194901,0.050499c0.671501,-1.766197 0.313702,-3.631199 -1.4109,-7.353397c-3.993399,-8.619499 -3.999399,-8.894802 -0.394699,-18.059601c3.234001,-8.222401 3.529602,-8.607901 8.1064,-10.5755c3.647499,-1.568098 4.75,-2.5625 4.75,-4.284597c0,-1.233301 -0.450001,-2.520601 -1,-2.8605c-1.6894,-1.0441 -1.110001,-5.389997 1,-7.499999c5.4142,-5.414221 12.877998,1.418699 8.757301,8.016999c-1.635002,2.618099 -0.142101,5.0035 4.015499,6.4163c1.726498,0.5867 3.563801,1.516701 4.083,2.0667c1.444798,1.530603 7.144199,15.475702 7.144199,17.480299c0,0.973999 -1.162003,4.398304 -2.5821,7.609501c-1.687996,3.816799 -2.389305,6.803398 -2.025002,8.6245c0.661606,3.308395 -0.841904,3.683899 -2.481697,0.619698c-0.936001,-1.748795 -0.7145,-3.583996 1.149998,-9.528996l2.309101,-7.363102l-2.1721,-4.470901c-5.8862,-12.115599 -7.719002,1.744102 -4.6982,35.528999c0.811401,9.074997 1.4809,17.215302 1.487701,18.0895c0.006798,0.874199 1.162697,2.113602 2.568699,2.754196c3.801296,1.7323 2.213001,2.837303 -3.174801,2.209305c-5.672501,-0.661003 -5.324001,0.237 -7.884998,-20.3312c-1.0121,-8.128105 -2.158501,-14.428101 -2.547703,-14c-0.389099,0.428001 -1.454697,7.078201 -2.368,14.778198c-2.474197,20.860001 -1.843098,19.257004 -7.735798,19.657997c-2.7701,0.188004 -5.245102,0.004005 -5.499901,-0.407997l0,0l0,0z" id="path3285" fill="red"/>
  <path fill="green" id="path3190" d="m26.917994,190.574005c-2.123301,-0.763 -3.6138,-2.018005 -3.789101,-3.192001c-0.1591,-1.063004 2.833801,-8.449997 6.650902,-16.415009c8.315397,-17.352997 9.3892,-20.97699 9.416899,-31.78299c0.028702,-11.194008 -1.1007,-12.173004 -6.814598,-5.904007c-4.051502,4.444 -4.392702,5.249008 -4.667604,11c-0.225399,4.716003 -0.656199,6.203995 -1.796497,6.203995c-1.2047,0 -1.4918,-1.487 -1.458403,-7.556c0.0347,-6.297989 0.477001,-8.299988 2.656,-12.01799c3.235403,-5.521004 8.504801,-10.760002 12.939901,-12.865005c3.3279,-1.580002 3.362503,-1.666 3.362503,-8.361c0,-6.962997 0.9086,-8.650002 4.678596,-8.684296c4.439301,-0.040504 6.786602,8.800301 3.071404,11.568298c-1.5965,1.189003 -1.617104,1.545998 -0.235001,4.068001c0.833298,1.520996 2.627499,3.028 3.987099,3.348999c1.796402,0.423996 2.920898,1.802002 4.114399,5.041c2.176701,5.908997 8.1325,12.619003 13.523903,15.238998c7.426399,3.608002 4.730896,5.087006 -3.906799,2.143997c-2.542503,-0.865997 -6.672203,-3.378998 -9.177204,-5.584c-4.074097,-3.585999 -4.633797,-3.815994 -5.3055,-2.175003c-0.412998,1.009003 -0.726299,5.659012 -0.696198,10.334c0.0583,9.070007 1.0966,12.376999 10.001602,31.858002l3.7938,8.299011l3.574898,-0.656006l3.574997,-0.656006l-3.952896,4.078003c-2.174202,2.242996 -4.245201,4.076996 -4.602203,4.076996c-0.357101,0 -4.1693,-5.737 -8.471497,-12.75c-4.302303,-7.011993 -8.916603,-14.503998 -10.254101,-16.647995l-2.431702,-3.897995l-3.189301,5.897995c-1.754097,3.244003 -5.587704,9.695999 -8.519199,14.337997l-5.330002,8.439011l2.125401,1.720993c3.762402,3.046005 2.817802,3.535995 -2.874498,1.490005l0,0l0,0z"/>
 </g>
</svg>