<?xml version="1.0" encoding="UTF-8"?>
<svg width="100" height="200" xmlns="http://www.w3.org/2000/svg">
 <g>
  <title>Layer 1</title>
  <rect fill="black" x="0" y="0" width="100" height="200" id="svg_1"/>
  <path d="m26.917994,190.574005c-2.123301,-0.763 -3.6138,-2.018005 -3.789101,-3.192001c-0.1591,-1.063004 2.833801,-8.449997 6.650902,-16.415009c8.315397,-17.352997 9.3892,-20.97699 9.416899,-31.78299c0.028702,-11.194008 -1.1007,-12.173004 -6.814598,-5.904007c-4.051502,4.444 -4.392702,5.249008 -4.667604,11c-0.225399,4.716003 -0.656199,6.203995 -1.796497,6.203995c-1.2047,0 -1.4918,-1.487 -1.458403,-7.556c0.0347,-6.297989 0.477001,-8.299988 2.656,-12.01799c3.235403,-5.521004 8.504801,-10.760002 12.939901,-12.865005c3.3279,-1.580002 3.362503,-1.666 3.362503,-8.361c0,-6.962997 0.9086,-8.650002 4.678596,-8.684296c4.439301,-0.040504 6.786602,8.800301 3.071404,11.568298c-1.5965,1.189003 -1.617104,1.545998 -0.235001,4.068001c0.833298,1.520996 2.627499,3.028 3.987099,3.348999c1.796402,0.423996 2.920898,1.802002 4.114399,5.041c2.176701,5.908997 8.1325,12.619003 13.523903,15.238998c7.426399,3.608002 4.730896,5.087006 -3.906799,2.143997c-2.542503,-0.865997 -6.672203,-3.378998 -9.177204,-5.584c-4.074097,-3.585999 -4.633797,-3.815994 -5.3055,-2.175003c-0.412998,1.009003 -0.726299,5.659012 -0.696198,10.334c0.0583,9.070007 1.0966,12.376999 10.001602,31.858002l3.7938,8.299011l3.574898,-0.656006l3.574997,-0.656006l-3.952896,4.078003c-2.174202,2.242996 -4.245201,4.076996 -4.602203,4.076996c-0.357101,0 -4.1693,-5.737 -8.471497,-12.75c-4.302303,-7.011993 -8.916603,-14.503998 -10.254101,-16.647995l-2.431702,-3.897995l-3.189301,5.897995c-1.754097,3.244003 -5.587704,9.695999 -8.519199,14.337997l-5.330002,8.439011l2.125401,1.720993c3.762402,3.046005 2.817802,3.535995 -2.874498,1.490005l0,0l0,0z" id="path3190" fill="green"/>
 </g>
</svg>